<mxfile host="65bd71144e">
    <diagram id="JIcGHsZX1j7HDyIxphcD" name="第 1 页">
        <mxGraphModel dx="928" dy="435" grid="1" gridSize="10" guides="1" tooltips="1" connect="1" arrows="1" fold="1" page="1" pageScale="1" pageWidth="1169" pageHeight="827" math="0" shadow="0">
            <root>
                <mxCell id="0"/>
                <mxCell id="1" parent="0"/>
                <mxCell id="2" value="" style="group" vertex="1" connectable="0" parent="1">
                    <mxGeometry x="785.3" y="100" width="120" height="160" as="geometry"/>
                </mxCell>
                <mxCell id="3" value="" style="whiteSpace=wrap;html=1;" vertex="1" parent="2">
                    <mxGeometry width="120" height="150" as="geometry"/>
                </mxCell>
                <mxCell id="4" value="Monster" style="text;html=1;align=center;verticalAlign=middle;resizable=0;points=[];autosize=1;strokeColor=none;fillColor=none;" vertex="1" parent="2">
                    <mxGeometry x="25" width="70" height="30" as="geometry"/>
                </mxCell>
                <mxCell id="5" value="" style="edgeStyle=none;orthogonalLoop=1;jettySize=auto;html=1;endArrow=none;endFill=0;entryX=0.999;entryY=0.133;entryDx=0;entryDy=0;entryPerimeter=0;" edge="1" parent="2">
                    <mxGeometry width="100" relative="1" as="geometry">
                        <mxPoint x="0.12000000000000455" y="80.23000000000002" as="sourcePoint"/>
                        <mxPoint x="119.99999999999989" y="80" as="targetPoint"/>
                        <Array as="points"/>
                    </mxGeometry>
                </mxCell>
                <mxCell id="6" value="&lt;div style=&quot;&quot;&gt;+Monster()&lt;/div&gt;&lt;div style=&quot;&quot;&gt;+~Monster()&lt;/div&gt;" style="text;html=1;align=left;verticalAlign=middle;resizable=0;points=[];autosize=1;strokeColor=none;fillColor=none;" vertex="1" parent="2">
                    <mxGeometry x="10" y="95" width="90" height="40" as="geometry"/>
                </mxCell>
                <mxCell id="7" value="" style="edgeStyle=none;orthogonalLoop=1;jettySize=auto;html=1;endArrow=none;endFill=0;entryX=0.999;entryY=0.133;entryDx=0;entryDy=0;entryPerimeter=0;" edge="1" parent="2">
                    <mxGeometry width="100" relative="1" as="geometry">
                        <mxPoint x="5.684341886080802e-14" y="30.230000000000018" as="sourcePoint"/>
                        <mxPoint x="119.87999999999982" y="30" as="targetPoint"/>
                        <Array as="points"/>
                    </mxGeometry>
                </mxCell>
                <mxCell id="8" value="&lt;div style=&quot;text-align: left;&quot;&gt;&lt;span style=&quot;background-color: initial;&quot;&gt;#mLife&lt;/span&gt;&lt;/div&gt;&lt;font style=&quot;&quot;&gt;&lt;div style=&quot;text-align: left;&quot;&gt;&lt;span style=&quot;background-color: initial;&quot;&gt;#mMagic&lt;/span&gt;&lt;/div&gt;&lt;font style=&quot;font-size: 12px;&quot;&gt;&lt;div style=&quot;text-align: left;&quot;&gt;&lt;span style=&quot;background-color: initial;&quot;&gt;#mAttack&lt;/span&gt;&lt;/div&gt;&lt;/font&gt;&lt;/font&gt;" style="text;html=1;align=center;verticalAlign=middle;resizable=0;points=[];autosize=1;strokeColor=none;fillColor=none;" vertex="1" parent="2">
                    <mxGeometry x="10" y="30" width="70" height="60" as="geometry"/>
                </mxCell>
                <mxCell id="9" value="" style="group" vertex="1" connectable="0" parent="1">
                    <mxGeometry x="599.3999999999999" y="310" width="150.6000000000001" height="90" as="geometry"/>
                </mxCell>
                <mxCell id="10" value="" style="whiteSpace=wrap;html=1;" vertex="1" parent="9">
                    <mxGeometry x="0.600000000000108" width="150" height="90" as="geometry"/>
                </mxCell>
                <mxCell id="11" value="" style="edgeStyle=none;orthogonalLoop=1;jettySize=auto;html=1;endArrow=none;endFill=0;entryX=1.004;entryY=0.341;entryDx=0;entryDy=0;entryPerimeter=0;" edge="1" parent="9" target="10">
                    <mxGeometry width="100" relative="1" as="geometry">
                        <mxPoint x="0.5999999999999943" y="30.22999999999996" as="sourcePoint"/>
                        <mxPoint x="120.4800000000001" y="30" as="targetPoint"/>
                        <Array as="points"/>
                    </mxGeometry>
                </mxCell>
                <mxCell id="12" value="" style="edgeStyle=none;orthogonalLoop=1;jettySize=auto;html=1;endArrow=none;endFill=0;entryX=1.004;entryY=0.341;entryDx=0;entryDy=0;entryPerimeter=0;" edge="1" parent="9">
                    <mxGeometry width="100" relative="1" as="geometry">
                        <mxPoint y="44.76999999999998" as="sourcePoint"/>
                        <mxPoint x="150.6000000000001" y="45.23000000000002" as="targetPoint"/>
                        <Array as="points"/>
                    </mxGeometry>
                </mxCell>
                <mxCell id="13" value="UndeadMonster" style="text;html=1;align=center;verticalAlign=middle;resizable=0;points=[];autosize=1;strokeColor=none;fillColor=none;" vertex="1" parent="9">
                    <mxGeometry x="20.600000000000108" width="110" height="30" as="geometry"/>
                </mxCell>
                <mxCell id="14" value="+UndeadMonster()" style="text;html=1;align=center;verticalAlign=middle;resizable=0;points=[];autosize=1;strokeColor=none;fillColor=none;" vertex="1" parent="9">
                    <mxGeometry x="15.600000000000108" y="50" width="120" height="30" as="geometry"/>
                </mxCell>
                <mxCell id="15" value="" style="group" vertex="1" connectable="0" parent="1">
                    <mxGeometry x="770" y="310" width="150.6000000000001" height="90" as="geometry"/>
                </mxCell>
                <mxCell id="16" value="" style="whiteSpace=wrap;html=1;" vertex="1" parent="15">
                    <mxGeometry x="0.600000000000108" width="150" height="90" as="geometry"/>
                </mxCell>
                <mxCell id="17" value="" style="edgeStyle=none;orthogonalLoop=1;jettySize=auto;html=1;endArrow=none;endFill=0;entryX=1.004;entryY=0.341;entryDx=0;entryDy=0;entryPerimeter=0;" edge="1" parent="15" target="16">
                    <mxGeometry width="100" relative="1" as="geometry">
                        <mxPoint x="0.5999999999999943" y="30.22999999999996" as="sourcePoint"/>
                        <mxPoint x="120.4800000000001" y="30" as="targetPoint"/>
                        <Array as="points"/>
                    </mxGeometry>
                </mxCell>
                <mxCell id="18" value="" style="edgeStyle=none;orthogonalLoop=1;jettySize=auto;html=1;endArrow=none;endFill=0;entryX=1.004;entryY=0.341;entryDx=0;entryDy=0;entryPerimeter=0;" edge="1" parent="15">
                    <mxGeometry width="100" relative="1" as="geometry">
                        <mxPoint y="44.76999999999998" as="sourcePoint"/>
                        <mxPoint x="150.6000000000001" y="45.23000000000002" as="targetPoint"/>
                        <Array as="points"/>
                    </mxGeometry>
                </mxCell>
                <mxCell id="19" value="ElementMonster" style="text;html=1;align=center;verticalAlign=middle;resizable=0;points=[];autosize=1;strokeColor=none;fillColor=none;" vertex="1" parent="15">
                    <mxGeometry x="20.600000000000108" width="110" height="30" as="geometry"/>
                </mxCell>
                <mxCell id="20" value="+ElementMonster()" style="text;html=1;align=center;verticalAlign=middle;resizable=0;points=[];autosize=1;strokeColor=none;fillColor=none;" vertex="1" parent="15">
                    <mxGeometry x="10.600000000000108" y="50" width="130" height="30" as="geometry"/>
                </mxCell>
                <mxCell id="21" value="" style="group" vertex="1" connectable="0" parent="1">
                    <mxGeometry x="940" y="310" width="150.6000000000001" height="90" as="geometry"/>
                </mxCell>
                <mxCell id="22" value="" style="whiteSpace=wrap;html=1;" vertex="1" parent="21">
                    <mxGeometry x="0.600000000000108" width="150" height="90" as="geometry"/>
                </mxCell>
                <mxCell id="23" value="" style="edgeStyle=none;orthogonalLoop=1;jettySize=auto;html=1;endArrow=none;endFill=0;entryX=1.004;entryY=0.341;entryDx=0;entryDy=0;entryPerimeter=0;" edge="1" parent="21" target="22">
                    <mxGeometry width="100" relative="1" as="geometry">
                        <mxPoint x="0.5999999999999943" y="30.22999999999996" as="sourcePoint"/>
                        <mxPoint x="120.4800000000001" y="30" as="targetPoint"/>
                        <Array as="points"/>
                    </mxGeometry>
                </mxCell>
                <mxCell id="24" value="" style="edgeStyle=none;orthogonalLoop=1;jettySize=auto;html=1;endArrow=none;endFill=0;entryX=1.004;entryY=0.341;entryDx=0;entryDy=0;entryPerimeter=0;" edge="1" parent="21">
                    <mxGeometry width="100" relative="1" as="geometry">
                        <mxPoint y="44.76999999999998" as="sourcePoint"/>
                        <mxPoint x="150.6000000000001" y="45.23000000000002" as="targetPoint"/>
                        <Array as="points"/>
                    </mxGeometry>
                </mxCell>
                <mxCell id="25" value="MechanicMonster" style="text;html=1;align=center;verticalAlign=middle;resizable=0;points=[];autosize=1;strokeColor=none;fillColor=none;" vertex="1" parent="21">
                    <mxGeometry x="15.600000000000023" width="120" height="30" as="geometry"/>
                </mxCell>
                <mxCell id="26" value="+MechanicMonster" style="text;html=1;align=center;verticalAlign=middle;resizable=0;points=[];autosize=1;strokeColor=none;fillColor=none;" vertex="1" parent="21">
                    <mxGeometry x="10.600000000000023" y="50" width="130" height="30" as="geometry"/>
                </mxCell>
                <mxCell id="27" style="edgeStyle=orthogonalEdgeStyle;html=1;" edge="1" parent="1" source="19">
                    <mxGeometry relative="1" as="geometry">
                        <mxPoint x="845.6000000000004" y="250" as="targetPoint"/>
                    </mxGeometry>
                </mxCell>
                <mxCell id="28" style="edgeStyle=orthogonalEdgeStyle;html=1;entryX=0.5;entryY=1;entryDx=0;entryDy=0;endArrow=none;endFill=0;rounded=0;" edge="1" parent="1" source="13" target="3">
                    <mxGeometry relative="1" as="geometry">
                        <Array as="points">
                            <mxPoint x="675" y="280"/>
                            <mxPoint x="845" y="280"/>
                        </Array>
                    </mxGeometry>
                </mxCell>
                <mxCell id="29" style="edgeStyle=orthogonalEdgeStyle;rounded=0;html=1;entryX=0.5;entryY=1;entryDx=0;entryDy=0;endArrow=none;endFill=0;" edge="1" parent="1" source="25" target="3">
                    <mxGeometry relative="1" as="geometry">
                        <Array as="points">
                            <mxPoint x="1016" y="280"/>
                            <mxPoint x="845" y="280"/>
                        </Array>
                    </mxGeometry>
                </mxCell>
                <mxCell id="30" value="" style="group" vertex="1" connectable="0" parent="1">
                    <mxGeometry x="270" y="280" width="150.6000000000001" height="90" as="geometry"/>
                </mxCell>
                <mxCell id="31" value="" style="group;fillColor=#eeeeee;strokeColor=#36393d;container=0;" vertex="1" connectable="0" parent="30">
                    <mxGeometry width="150.6000000000001" height="90" as="geometry"/>
                </mxCell>
                <mxCell id="32" value="" style="whiteSpace=wrap;html=1;fillColor=#647687;strokeColor=#314354;fontColor=#ffffff;" vertex="1" parent="30">
                    <mxGeometry x="0.600000000000108" width="150" height="90" as="geometry"/>
                </mxCell>
                <mxCell id="33" value="" style="edgeStyle=none;orthogonalLoop=1;jettySize=auto;html=1;endArrow=none;endFill=0;entryX=1.004;entryY=0.341;entryDx=0;entryDy=0;entryPerimeter=0;rounded=0;" edge="1" parent="30" target="32">
                    <mxGeometry width="100" relative="1" as="geometry">
                        <mxPoint x="0.5999999999999943" y="30.22999999999996" as="sourcePoint"/>
                        <mxPoint x="120.4800000000001" y="30" as="targetPoint"/>
                        <Array as="points"/>
                    </mxGeometry>
                </mxCell>
                <mxCell id="34" value="" style="edgeStyle=none;orthogonalLoop=1;jettySize=auto;html=1;endArrow=none;endFill=0;entryX=1.004;entryY=0.341;entryDx=0;entryDy=0;entryPerimeter=0;rounded=0;" edge="1" parent="30">
                    <mxGeometry width="100" relative="1" as="geometry">
                        <mxPoint y="44.76999999999998" as="sourcePoint"/>
                        <mxPoint x="150.6000000000001" y="45.23000000000002" as="targetPoint"/>
                        <Array as="points"/>
                    </mxGeometry>
                </mxCell>
                <mxCell id="35" value="MonsterFactory" style="text;html=1;align=center;verticalAlign=middle;resizable=0;points=[];autosize=1;strokeColor=none;fillColor=none;" vertex="1" parent="30">
                    <mxGeometry x="20.299999999999997" width="110" height="30" as="geometry"/>
                </mxCell>
                <mxCell id="65" value="&lt;i&gt;+createMonster()&lt;/i&gt;" style="text;html=1;align=center;verticalAlign=middle;resizable=0;points=[];autosize=1;strokeColor=none;fillColor=none;" vertex="1" parent="30">
                    <mxGeometry x="15.300000000000011" y="50" width="120" height="30" as="geometry"/>
                </mxCell>
                <mxCell id="40" value="创建" style="text;html=1;align=center;verticalAlign=middle;resizable=0;points=[];autosize=1;strokeColor=none;fillColor=none;" vertex="1" parent="1">
                    <mxGeometry x="630" y="560" width="50" height="30" as="geometry"/>
                </mxCell>
                <mxCell id="41" value="创建" style="text;html=1;align=center;verticalAlign=middle;resizable=0;points=[];autosize=1;strokeColor=none;fillColor=none;" vertex="1" parent="1">
                    <mxGeometry x="800" y="530" width="50" height="30" as="geometry"/>
                </mxCell>
                <mxCell id="42" value="创建" style="text;html=1;align=center;verticalAlign=middle;resizable=0;points=[];autosize=1;strokeColor=none;fillColor=none;" vertex="1" parent="1">
                    <mxGeometry x="970" y="500" width="50" height="30" as="geometry"/>
                </mxCell>
                <mxCell id="43" value="" style="group" vertex="1" connectable="0" parent="1">
                    <mxGeometry x="90" y="414" width="150.6000000000001" height="90" as="geometry"/>
                </mxCell>
                <mxCell id="44" value="" style="group;fillColor=#eeeeee;strokeColor=#36393d;container=0;" vertex="1" connectable="0" parent="43">
                    <mxGeometry width="150.6000000000001" height="90" as="geometry"/>
                </mxCell>
                <mxCell id="45" value="" style="whiteSpace=wrap;html=1;fillColor=#647687;strokeColor=#314354;fontColor=#ffffff;" vertex="1" parent="43">
                    <mxGeometry x="0.600000000000108" width="150" height="90" as="geometry"/>
                </mxCell>
                <mxCell id="46" value="" style="edgeStyle=none;orthogonalLoop=1;jettySize=auto;html=1;endArrow=none;endFill=0;entryX=1.004;entryY=0.341;entryDx=0;entryDy=0;entryPerimeter=0;rounded=0;" edge="1" parent="43" target="45">
                    <mxGeometry width="100" relative="1" as="geometry">
                        <mxPoint x="0.5999999999999943" y="30.22999999999996" as="sourcePoint"/>
                        <mxPoint x="120.4800000000001" y="30" as="targetPoint"/>
                        <Array as="points"/>
                    </mxGeometry>
                </mxCell>
                <mxCell id="47" value="" style="edgeStyle=none;orthogonalLoop=1;jettySize=auto;html=1;endArrow=none;endFill=0;entryX=1.004;entryY=0.341;entryDx=0;entryDy=0;entryPerimeter=0;rounded=0;" edge="1" parent="43">
                    <mxGeometry width="100" relative="1" as="geometry">
                        <mxPoint y="44.76999999999998" as="sourcePoint"/>
                        <mxPoint x="150.6000000000001" y="45.23000000000002" as="targetPoint"/>
                        <Array as="points"/>
                    </mxGeometry>
                </mxCell>
                <mxCell id="48" value="UndeadFactory" style="text;html=1;align=center;verticalAlign=middle;resizable=0;points=[];autosize=1;strokeColor=none;fillColor=none;" vertex="1" parent="43">
                    <mxGeometry x="20.600000000000023" width="110" height="30" as="geometry"/>
                </mxCell>
                <mxCell id="49" value="&lt;i&gt;+createMonster()&lt;/i&gt;" style="text;html=1;align=center;verticalAlign=middle;resizable=0;points=[];autosize=1;strokeColor=none;fillColor=none;" vertex="1" parent="43">
                    <mxGeometry x="15.600000000000023" y="46" width="120" height="30" as="geometry"/>
                </mxCell>
                <mxCell id="50" value="" style="group" vertex="1" connectable="0" parent="1">
                    <mxGeometry x="270" y="414" width="150.6000000000001" height="90" as="geometry"/>
                </mxCell>
                <mxCell id="51" value="" style="group;fillColor=#eeeeee;strokeColor=#36393d;container=0;" vertex="1" connectable="0" parent="50">
                    <mxGeometry width="150.6000000000001" height="90" as="geometry"/>
                </mxCell>
                <mxCell id="52" value="" style="whiteSpace=wrap;html=1;fillColor=#647687;strokeColor=#314354;fontColor=#ffffff;" vertex="1" parent="50">
                    <mxGeometry x="0.600000000000108" width="150" height="90" as="geometry"/>
                </mxCell>
                <mxCell id="53" value="" style="edgeStyle=none;orthogonalLoop=1;jettySize=auto;html=1;endArrow=none;endFill=0;entryX=1.004;entryY=0.341;entryDx=0;entryDy=0;entryPerimeter=0;rounded=0;" edge="1" parent="50" target="52">
                    <mxGeometry width="100" relative="1" as="geometry">
                        <mxPoint x="0.5999999999999943" y="30.22999999999996" as="sourcePoint"/>
                        <mxPoint x="120.4800000000001" y="30" as="targetPoint"/>
                        <Array as="points"/>
                    </mxGeometry>
                </mxCell>
                <mxCell id="54" value="" style="edgeStyle=none;orthogonalLoop=1;jettySize=auto;html=1;endArrow=none;endFill=0;entryX=1.004;entryY=0.341;entryDx=0;entryDy=0;entryPerimeter=0;rounded=0;" edge="1" parent="50">
                    <mxGeometry width="100" relative="1" as="geometry">
                        <mxPoint y="44.76999999999998" as="sourcePoint"/>
                        <mxPoint x="150.6000000000001" y="45.23000000000002" as="targetPoint"/>
                        <Array as="points"/>
                    </mxGeometry>
                </mxCell>
                <mxCell id="55" value="ElementFactory" style="text;html=1;align=center;verticalAlign=middle;resizable=0;points=[];autosize=1;strokeColor=none;fillColor=none;" vertex="1" parent="50">
                    <mxGeometry x="20.600000000000023" width="110" height="30" as="geometry"/>
                </mxCell>
                <mxCell id="64" value="&lt;i&gt;+createMonster()&lt;/i&gt;" style="text;html=1;align=center;verticalAlign=middle;resizable=0;points=[];autosize=1;strokeColor=none;fillColor=none;" vertex="1" parent="50">
                    <mxGeometry x="15.300000000000011" y="46" width="120" height="30" as="geometry"/>
                </mxCell>
                <mxCell id="57" value="" style="group" vertex="1" connectable="0" parent="1">
                    <mxGeometry x="448.8" y="414" width="150.6000000000001" height="90" as="geometry"/>
                </mxCell>
                <mxCell id="58" value="" style="group;fillColor=#eeeeee;strokeColor=#36393d;container=0;" vertex="1" connectable="0" parent="57">
                    <mxGeometry width="150.6000000000001" height="90" as="geometry"/>
                </mxCell>
                <mxCell id="59" value="" style="whiteSpace=wrap;html=1;fillColor=#647687;strokeColor=#314354;fontColor=#ffffff;" vertex="1" parent="57">
                    <mxGeometry x="0.600000000000108" width="150" height="90" as="geometry"/>
                </mxCell>
                <mxCell id="60" value="" style="edgeStyle=none;orthogonalLoop=1;jettySize=auto;html=1;endArrow=none;endFill=0;entryX=1.004;entryY=0.341;entryDx=0;entryDy=0;entryPerimeter=0;rounded=0;" edge="1" parent="57" target="59">
                    <mxGeometry width="100" relative="1" as="geometry">
                        <mxPoint x="0.5999999999999943" y="30.22999999999996" as="sourcePoint"/>
                        <mxPoint x="120.4800000000001" y="30" as="targetPoint"/>
                        <Array as="points"/>
                    </mxGeometry>
                </mxCell>
                <mxCell id="61" value="" style="edgeStyle=none;orthogonalLoop=1;jettySize=auto;html=1;endArrow=none;endFill=0;entryX=1.004;entryY=0.341;entryDx=0;entryDy=0;entryPerimeter=0;rounded=0;" edge="1" parent="57">
                    <mxGeometry width="100" relative="1" as="geometry">
                        <mxPoint y="44.76999999999998" as="sourcePoint"/>
                        <mxPoint x="150.6000000000001" y="45.23000000000002" as="targetPoint"/>
                        <Array as="points"/>
                    </mxGeometry>
                </mxCell>
                <mxCell id="62" value="MechanicFactory" style="text;html=1;align=center;verticalAlign=middle;resizable=0;points=[];autosize=1;strokeColor=none;fillColor=none;" vertex="1" parent="57">
                    <mxGeometry x="20.600000000000023" width="110" height="30" as="geometry"/>
                </mxCell>
                <mxCell id="66" value="&lt;i&gt;+createMonster()&lt;/i&gt;" style="text;html=1;align=center;verticalAlign=middle;resizable=0;points=[];autosize=1;strokeColor=none;fillColor=none;" vertex="1" parent="57">
                    <mxGeometry x="20.600000000000023" y="46" width="120" height="30" as="geometry"/>
                </mxCell>
                <mxCell id="67" style="edgeStyle=orthogonalEdgeStyle;html=1;entryX=0.5;entryY=1;entryDx=0;entryDy=0;rounded=0;" edge="1" parent="1" source="48" target="32">
                    <mxGeometry relative="1" as="geometry">
                        <Array as="points">
                            <mxPoint x="166" y="390"/>
                            <mxPoint x="346" y="390"/>
                        </Array>
                    </mxGeometry>
                </mxCell>
                <mxCell id="68" style="edgeStyle=orthogonalEdgeStyle;rounded=0;html=1;" edge="1" parent="1" source="55">
                    <mxGeometry relative="1" as="geometry">
                        <mxPoint x="345.5999999999999" y="370" as="targetPoint"/>
                    </mxGeometry>
                </mxCell>
                <mxCell id="69" style="edgeStyle=orthogonalEdgeStyle;rounded=0;html=1;entryX=0.5;entryY=1;entryDx=0;entryDy=0;" edge="1" parent="1" source="62" target="32">
                    <mxGeometry relative="1" as="geometry">
                        <Array as="points">
                            <mxPoint x="524" y="390"/>
                            <mxPoint x="346" y="390"/>
                        </Array>
                    </mxGeometry>
                </mxCell>
                <mxCell id="70" style="edgeStyle=orthogonalEdgeStyle;rounded=0;html=1;entryX=0.5;entryY=1;entryDx=0;entryDy=0;dashed=1;" edge="1" parent="1" source="45" target="10">
                    <mxGeometry relative="1" as="geometry">
                        <Array as="points">
                            <mxPoint x="166" y="590"/>
                            <mxPoint x="675" y="590"/>
                        </Array>
                    </mxGeometry>
                </mxCell>
                <mxCell id="71" style="edgeStyle=orthogonalEdgeStyle;rounded=0;html=1;exitX=0.5;exitY=1;exitDx=0;exitDy=0;entryX=0.5;entryY=1;entryDx=0;entryDy=0;dashed=1;" edge="1" parent="1" source="52" target="16">
                    <mxGeometry relative="1" as="geometry">
                        <Array as="points">
                            <mxPoint x="346" y="560"/>
                            <mxPoint x="846" y="560"/>
                        </Array>
                    </mxGeometry>
                </mxCell>
                <mxCell id="72" style="edgeStyle=orthogonalEdgeStyle;rounded=0;html=1;dashed=1;" edge="1" parent="1" source="59" target="22">
                    <mxGeometry relative="1" as="geometry">
                        <Array as="points">
                            <mxPoint x="524" y="530"/>
                            <mxPoint x="1016" y="530"/>
                        </Array>
                    </mxGeometry>
                </mxCell>
            </root>
        </mxGraphModel>
    </diagram>
</mxfile>